<svg width="44" height="32" viewBox="0 0 44 32" fill="none" xmlns="http://www.w3.org/2000/svg">
<path d="M37.4012 0.0498047H6.6008C4.84818 0.053503 3.16867 0.752595 1.93107 1.99356C0.693462 3.23453 -0.00105944 4.91593 1.21306e-06 6.66855V25.3323C0.00314371 27.0836 0.699019 28.7626 1.93572 30.0026C3.17241 31.2427 4.84948 31.9431 6.6008 31.951H37.4012C39.1535 31.9468 40.8325 31.2475 42.0697 30.0065C43.3068 28.7656 44.0011 27.0845 44 25.3323V6.66855C44.0027 5.80031 43.8339 4.94009 43.5035 4.13718C43.173 3.33427 42.6874 2.60447 42.0744 1.9896C41.4613 1.37473 40.733 0.886881 39.9311 0.554014C39.1292 0.221147 38.2695 0.0498007 37.4012 0.0498047ZM39.4473 26.1539L28.7324 16.0273L39.4473 5.90279V26.1539ZM4.54877 26.1319V5.8968L15.2636 16.0213L4.54877 26.1319ZM36.3662 4.46297L22.353 17.4253C22.2583 17.5161 22.1322 17.5668 22.001 17.5668C21.8698 17.5668 21.7437 17.5161 21.649 17.4253L7.6338 4.46297H36.3662ZM7.7016 27.5378L17.7105 18.2947L19.4056 19.8602C20.1119 20.5113 21.0374 20.8728 21.998 20.8728C22.9587 20.8728 23.8842 20.5113 24.5905 19.8602L26.2856 18.2947L36.2944 27.5378H7.7016Z" fill="black"/>
</svg>
